<svg width="385" height="131" viewBox="0 0 385 131" fill="none" xmlns="http://www.w3.org/2000/svg">
<path d="M34.8781 130.503C29.9373 130.515 25.0099 129.989 20.1829 128.934C15.8236 127.993 11.5756 126.595 7.50925 124.764C7.4295 124.728 7.35762 124.677 7.29777 124.613C7.23792 124.55 7.19132 124.475 7.16065 124.393C7.12999 124.311 7.11587 124.224 7.11914 124.137C7.1224 124.05 7.14298 123.964 7.17967 123.885L13.1913 109.822C13.2256 109.741 13.2758 109.668 13.339 109.607C13.4021 109.546 13.477 109.498 13.559 109.467C13.641 109.435 13.7285 109.42 13.8164 109.423C13.9042 109.426 13.9905 109.447 14.0702 109.484C17.3263 110.989 20.7084 112.205 24.1775 113.118C27.418 113.973 30.7534 114.416 34.1046 114.437C39.1495 114.437 42.958 113.391 45.5303 111.299C48.1025 109.207 49.3872 106.116 49.3842 102.027V95.4744C49.3842 95.2784 49.3265 95.0868 49.2183 94.9234C49.11 94.76 48.9561 94.6321 48.7756 94.5557C48.5951 94.4793 48.3961 94.4578 48.2035 94.4938C48.0108 94.5298 47.8331 94.6217 47.6924 94.7581C45.7085 96.6734 43.4085 98.2314 40.8941 99.3635C36.7189 101.266 32.1259 102.067 27.5532 101.69C22.9805 101.313 18.5806 99.7707 14.7733 97.2102C10.187 94.1061 6.47392 89.8771 3.98928 84.9277C1.28934 79.623 -0.0786421 73.7409 0.00349171 67.7892C-0.0765008 61.8455 1.36195 55.9798 4.18264 50.7474C6.83861 45.7923 10.7306 41.6082 15.4808 38.6011C20.2234 35.5962 25.7352 34.0301 31.3493 34.0924C34.8341 34.0786 38.2812 34.8144 41.4566 36.25C43.8333 37.3235 45.9998 38.8116 47.8549 40.6445C47.9982 40.7888 48.1811 40.8873 48.3804 40.9276C48.5796 40.968 48.7864 40.9483 48.9745 40.8712C49.1626 40.7941 49.3237 40.6629 49.4373 40.4943C49.5509 40.3257 49.6119 40.1272 49.6127 39.9238V35.1602C49.6127 34.9854 49.6822 34.8177 49.8058 34.6941C49.9294 34.5705 50.0971 34.501 50.2719 34.501H69.7351C69.9099 34.501 70.0775 34.5705 70.2012 34.6941C70.3248 34.8177 70.3942 34.9854 70.3942 35.1602V102.29C70.3942 111.346 67.3474 118.313 61.2537 123.19C55.16 128.068 46.3681 130.506 34.8781 130.503ZM36.838 84.5278C39.063 84.5682 41.2735 84.1611 43.3381 83.3308C45.4027 82.5004 47.2795 81.2636 48.8569 79.6939C49.0235 79.5283 49.1552 79.3309 49.2443 79.1135C49.3334 78.8962 49.378 78.6631 49.3754 78.4282V57.449C49.3752 57.2019 49.3244 56.9575 49.2262 56.7307C49.1279 56.504 48.9843 56.2998 48.8042 56.1306C47.3301 54.6982 45.5952 53.5615 43.6934 52.7821C41.5156 51.9014 39.1871 51.4536 36.838 51.4637C33.9493 51.422 31.1039 52.168 28.6071 53.6214C26.2103 55.017 24.228 57.0251 22.8636 59.4397C21.4285 62.0353 20.7068 64.9647 20.7718 67.9298C20.7274 70.8927 21.4479 73.8169 22.8636 76.42C24.1996 78.8889 26.1859 80.9451 28.6071 82.3657C31.1034 83.8207 33.9489 84.5682 36.838 84.5278Z" fill="#232426"/>
<path d="M109.931 101.53C103.422 101.53 97.5917 100.052 92.4413 97.096C87.3661 94.214 83.1472 90.0361 80.2159 84.9892C77.213 79.877 75.713 74.1114 75.7159 67.6925C75.7189 61.2737 77.2189 55.5081 80.2159 50.3959C83.1478 45.3506 87.3667 41.1742 92.4413 38.2935C97.5946 35.3345 103.382 33.8551 109.804 33.8551C116.311 33.8551 122.12 35.3345 127.232 38.2935C132.279 41.1904 136.474 45.3643 139.396 50.3959C142.393 55.5081 143.893 61.2737 143.896 67.6925C143.899 74.1114 142.399 79.877 139.396 84.9892C136.475 90.0229 132.28 94.1985 127.232 97.096C122.117 100.052 116.35 101.53 109.931 101.53ZM109.804 84.4223C112.418 84.4742 114.985 83.721 117.156 82.2646C119.317 80.7693 121.027 78.7097 122.1 76.3101C123.268 73.5766 123.871 70.6346 123.871 67.6618C123.871 64.689 123.268 61.747 122.1 59.0135C121.012 56.6399 119.304 54.6039 117.156 53.1204C114.975 51.7118 112.433 50.9626 109.837 50.9626C107.24 50.9626 104.699 51.7118 102.518 53.1204C100.341 54.5829 98.6087 56.6174 97.5126 59.0003C96.2953 61.6837 95.6946 64.6059 95.7548 67.5519C95.6909 70.5607 96.291 73.5465 97.5126 76.2969C98.5918 78.7105 100.326 80.7733 102.518 82.2514C104.672 83.6942 107.212 84.451 109.804 84.4223V84.4223Z" fill="#232426"/>
<path d="M171.85 101.53C167.437 101.53 163.515 100.682 160.081 98.9856C156.816 97.4379 154.043 95.0165 152.07 91.9896C150.127 88.9092 149.13 85.326 149.205 81.6845C149.205 77.6153 150.223 74.1598 152.259 71.318C154.295 68.4762 157.225 66.3141 161.048 64.8317C164.856 63.3464 169.437 62.6037 174.789 62.6037C177.223 62.611 179.651 62.8464 182.04 63.3068C184.296 63.7514 186.515 64.3684 188.676 65.1525C188.831 65.2082 188.997 65.2257 189.161 65.2037C189.324 65.1816 189.48 65.1206 189.614 65.0259C189.749 64.9311 189.859 64.8053 189.935 64.6591C190.011 64.5129 190.051 64.3505 190.051 64.1857V60.3186C190.051 57.096 188.991 54.701 186.87 53.1336C184.749 51.5663 181.485 50.7811 177.079 50.7782C174.311 50.8173 171.558 51.1801 168.874 51.8592C165.681 52.6628 162.553 53.7088 159.519 54.9881C159.278 55.0901 159.007 55.0959 158.762 55.0044C158.516 54.9128 158.316 54.7309 158.2 54.4959L151.986 41.9497C151.923 41.8254 151.886 41.6895 151.876 41.5503C151.867 41.4111 151.886 41.2715 151.933 41.1399C151.979 41.0084 152.052 40.8877 152.147 40.7851C152.241 40.6826 152.356 40.6004 152.483 40.5435C162.737 36.0875 172.457 33.858 181.645 33.8551C190.727 33.8551 197.786 36.0186 202.822 40.3457C207.858 44.6728 210.382 50.7357 210.394 58.5344V100.502C210.394 100.637 210.367 100.77 210.315 100.895C210.264 101.02 210.188 101.133 210.092 101.229C209.997 101.324 209.883 101.4 209.759 101.452C209.634 101.503 209.5 101.53 209.365 101.53H191.067C190.794 101.53 190.532 101.422 190.339 101.229C190.147 101.036 190.038 100.774 190.038 100.502V96.8323C190.04 96.6475 189.99 96.4659 189.893 96.3081C189.797 96.1502 189.659 96.0223 189.494 95.9388C189.329 95.8552 189.144 95.8193 188.96 95.8351C188.776 95.8508 188.6 95.9177 188.452 96.0281C186.295 97.6596 183.917 98.9764 181.39 99.9392C178.329 101.029 175.099 101.568 171.85 101.53V101.53ZM168.171 81.0254C168.119 81.9923 168.311 82.957 168.729 83.8302C169.148 84.7035 169.78 85.4572 170.566 86.0219C172.362 87.2846 174.911 87.9174 178.213 87.9203C180.314 87.9317 182.406 87.6537 184.431 87.0941C186.055 86.6341 187.62 85.9851 189.093 85.1606C189.377 85.0027 189.613 84.772 189.778 84.4923C189.942 84.2127 190.029 83.8942 190.029 83.5698V77.668C190.026 77.2524 189.88 76.8506 189.615 76.5303C189.35 76.2101 188.983 75.9911 188.575 75.9102C187.195 75.6289 185.811 75.3961 184.431 75.2071C182.538 74.9504 180.629 74.8227 178.718 74.8248C175.326 74.8248 172.718 75.3756 170.896 76.4771C170.081 76.9271 169.399 77.585 168.92 78.3839C168.442 79.1828 168.183 80.0942 168.171 81.0254V81.0254Z" fill="#232426"/>
<path d="M221.015 100.502V9.03505C221.014 8.78785 221.103 8.54873 221.264 8.3615C221.426 8.17427 221.649 8.05146 221.894 8.01554L241.084 5.05805C241.231 5.03523 241.381 5.04439 241.524 5.0849C241.666 5.12541 241.798 5.19632 241.911 5.29275C242.024 5.38919 242.114 5.50886 242.177 5.64357C242.239 5.77828 242.271 5.92484 242.271 6.07317V100.502C242.271 100.774 242.163 101.036 241.97 101.229C241.777 101.422 241.515 101.53 241.243 101.53H222.043C221.908 101.53 221.774 101.503 221.65 101.452C221.525 101.4 221.412 101.324 221.316 101.229C221.221 101.133 221.145 101.02 221.093 100.895C221.041 100.77 221.015 100.637 221.015 100.502V100.502Z" fill="#232426"/>
<path d="M266.915 100.502V51.2836C266.915 51.0108 266.807 50.7493 266.614 50.5564C266.421 50.3636 266.16 50.2552 265.887 50.2552H253.912C253.777 50.2552 253.643 50.2286 253.518 50.177C253.394 50.1253 253.28 50.0495 253.185 49.9541C253.089 49.8586 253.014 49.7452 252.962 49.6204C252.91 49.4957 252.884 49.362 252.884 49.2269V34.8834C252.884 34.6106 252.992 34.3491 253.185 34.1563C253.378 33.9634 253.639 33.8551 253.912 33.8551H265.887C266.022 33.8557 266.156 33.8294 266.281 33.778C266.406 33.7265 266.52 33.6508 266.615 33.5552C266.711 33.4596 266.787 33.346 266.838 33.221C266.89 33.0959 266.916 32.962 266.915 32.8268V24.9167C266.915 16.8748 269.233 10.7108 273.867 6.42473C278.502 2.13865 285.19 -0.00292665 293.932 3.0017e-06C295.769 3.0017e-06 297.759 0.108409 299.9 0.325203C301.429 0.465341 302.945 0.720946 304.435 1.08984C304.657 1.14635 304.854 1.27501 304.995 1.45558C305.136 1.63615 305.212 1.8584 305.213 2.08738V17.5296C305.213 17.6788 305.181 17.8262 305.118 17.9617C305.056 18.0971 304.964 18.2173 304.85 18.3138C304.737 18.4104 304.603 18.4811 304.46 18.521C304.316 18.5608 304.165 18.5689 304.018 18.5447C302.641 18.3162 301.509 18.1697 300.621 18.1053C299.483 18.0174 298.305 17.9734 297.079 17.9734C294.108 17.9734 291.879 18.5594 290.391 19.7312C288.902 20.9031 288.16 22.7619 288.163 25.3078V32.8004C288.163 33.0731 288.271 33.3347 288.464 33.5275C288.657 33.7203 288.918 33.8287 289.191 33.8287H304.185C304.458 33.8287 304.719 33.937 304.912 34.1299C305.105 34.3227 305.213 34.5843 305.213 34.857V49.1962C305.213 49.4689 305.105 49.7304 304.912 49.9233C304.719 50.1161 304.458 50.2245 304.185 50.2245H289.191C288.918 50.2245 288.657 50.3328 288.464 50.5257C288.271 50.7185 288.163 50.9801 288.163 51.2528V100.471C288.163 100.744 288.054 101.005 287.861 101.198C287.668 101.391 287.407 101.499 287.134 101.499H267.926C267.662 101.495 267.409 101.389 267.221 101.203C267.033 101.017 266.923 100.766 266.915 100.502V100.502Z" fill="#232426"/>
<path d="M325.432 130.248C322.755 130.229 320.086 129.935 317.469 129.369C317.236 129.321 317.027 129.195 316.876 129.011C316.726 128.827 316.643 128.596 316.643 128.358V112.516C316.643 112.371 316.673 112.227 316.732 112.095C316.792 111.962 316.878 111.843 316.987 111.747C317.095 111.65 317.223 111.577 317.361 111.533C317.5 111.49 317.646 111.476 317.79 111.492L319.464 111.694C320.618 111.826 321.779 111.891 322.94 111.888C325.823 111.888 328.119 111.302 329.827 110.13C331.622 108.836 333.047 107.094 333.957 105.076L334.138 104.69C334.412 104.106 334.569 103.475 334.599 102.831C334.63 102.187 334.532 101.543 334.313 100.937L310.583 35.2437C310.527 35.0883 310.508 34.9216 310.53 34.7577C310.552 34.5938 310.613 34.4375 310.707 34.3021C310.802 34.1667 310.928 34.0562 311.075 33.9799C311.222 33.9036 311.385 33.8638 311.55 33.8638H332.815C333.032 33.8642 333.244 33.9332 333.42 34.061C333.596 34.1889 333.727 34.369 333.795 34.5757L346.833 74.5919C346.901 74.7966 347.032 74.9747 347.208 75.101C347.383 75.2272 347.593 75.2951 347.809 75.2951C348.025 75.2951 348.235 75.2272 348.41 75.101C348.585 74.9747 348.716 74.7966 348.784 74.5919L362.311 34.5538C362.379 34.3502 362.509 34.1732 362.684 34.0478C362.858 33.9224 363.067 33.855 363.282 33.8551H383.971C384.139 33.8549 384.305 33.8962 384.454 33.9753C384.603 34.0544 384.73 34.1689 384.824 34.3087C384.919 34.4485 384.977 34.6092 384.995 34.7769C385.012 34.9445 384.988 35.1139 384.925 35.2701L355.073 109.137C352.972 114.293 350.629 118.424 348.042 121.529C345.584 124.544 342.371 126.852 338.73 128.218C335.109 129.571 330.676 130.248 325.432 130.248Z" fill="#232426"/>
<path d="M349.061 55.9241L355.574 35.5953C355.645 35.3943 355.666 35.179 355.636 34.968C355.606 34.7569 355.524 34.5563 355.4 34.3835C355.275 34.2106 355.11 34.0707 354.919 33.9756C354.728 33.8805 354.517 33.8331 354.304 33.8375H341.279C341.066 33.8338 340.855 33.8818 340.665 33.9772C340.475 34.0726 340.31 34.2126 340.186 34.3853C340.062 34.5581 339.981 34.7583 339.951 34.9691C339.921 35.1798 339.942 35.3946 340.013 35.5953L346.526 55.9241C346.604 56.1998 346.77 56.4423 346.999 56.6149C347.228 56.7876 347.507 56.881 347.793 56.881C348.08 56.881 348.359 56.7876 348.588 56.6149C348.816 56.4423 348.983 56.1998 349.061 55.9241V55.9241Z" fill="#7F23F7"/>
</svg>
